<svg style="background:white;" viewBox="0 0 16 16" version="1.1" xmlns="http://www.w3.org/2000/svg">
 
 
    <path fill="black" id="right"
        d="M 8 3.86 C 8.7 3.86 9.38 3.95 10 4.13 C 11.55 3.09 12.22 3.31 12.22 3.31 C 12.66 4.41 12.38 5.23 12.3 5.43 C 12.81 6 13.12 6.7 13.12 7.58 C 13.12 10.65 11.25 11.33 9.47 11.53 C 9.76 11.78 10 12.26 10 13 C 10 14.08 10 14.94 10 15.21 C 10 15.42 10.15 15.67 10.55 15.59 C 13.806 14.491 16 11.437 16 8 C 16 3.58 12.42 0 8 0 Z">
    </path>
    <use href="#right" x="-16" style="transform: scaleX(-1);" />
 
 
</svg>

